<svg xmlns="http://www.w3.org/2000/svg" version="1.1" xmlns:xlink="http://www.w3.org/1999/xlink" width="200" height="200"><svg xmlns="http://www.w3.org/2000/svg" version="1.1" xmlns:xlink="http://www.w3.org/1999/xlink" viewBox="0 0 200 200"><rect width="200" height="200" fill="url('#gradient')"></rect><defs><linearGradient id="SvgjsLinearGradient1001" gradientTransform="rotate(45 0.5 0.5)"><stop offset="0%" stop-color="#79ca9f"></stop><stop offset="100%" stop-color="#fcfbf3"></stop></linearGradient></defs><g><g fill="#2e2f30" transform="matrix(2.801641586867305,0,0,2.801641586867305,6.996265241939952,119.64122582721319)" stroke="#1d7d80" stroke-width="0.2"><path d="M12.96-14.22L12.96 0L9.55 0L9.55-5.94L4.50-5.94L4.50 0L1.07 0L1.07-14.22L4.50-14.22L4.50-8.57L9.55-8.57L9.55-14.22L12.96-14.22ZM24.21 0L23.38-2.66L18.68-2.66L17.86 0L14.20 0L19.41-14.22L22.64-14.22L27.89 0L24.21 0ZM21.03-10.23L19.50-5.30L22.56-5.30L21.03-10.23ZM34.70 0L28.93 0L28.93-14.22L34.03-14.22Q36.78-14.22 38.21-13.21Q39.64-12.21 39.64-10.29L39.64-10.29Q39.64-9.19 39.13-8.41Q38.62-7.63 37.64-7.26L37.64-7.26Q38.75-6.96 39.35-6.16Q39.94-5.36 39.94-4.21L39.94-4.21Q39.94-2.12 38.62-1.07Q37.29-0.02 34.70 0L34.70 0ZM34.76-6.04L32.35-6.04L32.35-2.64L34.60-2.64Q35.53-2.64 36.03-3.06Q36.52-3.49 36.52-4.26L36.52-4.26Q36.52-6.04 34.76-6.04L34.76-6.04ZM32.35-11.57L32.35-8.29L34.14-8.29Q35.26-8.30 35.74-8.70Q36.22-9.10 36.22-9.88L36.22-9.88Q36.22-10.78 35.70-11.18Q35.19-11.57 34.03-11.57L34.03-11.57L32.35-11.57ZM52.72-14.22L52.72-11.57L48.46-11.57L48.46 0L45.03 0L45.03-11.57L40.84-11.57L40.84-14.22L52.72-14.22ZM61.89-14.22L65.32-14.22L65.32-4.91Q65.32-3.33 64.65-2.17Q63.97-1.02 62.71-0.41Q61.46 0.20 59.74 0.20L59.74 0.20Q57.14 0.20 55.64-1.15Q54.15-2.50 54.12-4.84L54.12-4.84L54.12-14.22L57.57-14.22L57.57-4.78Q57.63-2.44 59.74-2.44L59.74-2.44Q60.80-2.44 61.35-3.03Q61.89-3.61 61.89-4.93L61.89-4.93L61.89-14.22Z"></path></g></g></svg><style>@media (prefers-color-scheme: light) { :root { filter: none; } }
@media (prefers-color-scheme: dark) { :root { filter: none; } }
</style></svg>